<?xml version="1.0" encoding="UTF-8" standalone="no"?>
<svg
        version="1.1"
        id="Layer_1"
        x="0px"
        y="0px"
        viewBox="0 0 122.88 95.21"
        style="enable-background:new 0 0 122.88 95.21"
        xml:space="preserve"
        sodipodi:docname="2d-folder-icon.svg"
        inkscape:version="1.4 (86a8ad7, 2024-10-11)"
        xmlns:inkscape="http://www.inkscape.org/namespaces/inkscape"
        xmlns:sodipodi="http://sodipodi.sourceforge.net/DTD/sodipodi-0.dtd"
        xmlns="http://www.w3.org/2000/svg"
><defs
   id="defs2" /><sodipodi:namedview
   id="namedview2"
   pagecolor="#ffffff"
   bordercolor="#000000"
   borderopacity="0.25"
   inkscape:showpageshadow="2"
   inkscape:pageopacity="0.0"
   inkscape:pagecheckerboard="0"
   inkscape:deskcolor="#d1d1d1"
   inkscape:zoom="7.0071973"
   inkscape:cx="53.730469"
   inkscape:cy="36.533865"
   inkscape:window-width="2011"
   inkscape:window-height="1258"
   inkscape:window-x="1473"
   inkscape:window-y="254"
   inkscape:window-maximized="0"
   inkscape:current-layer="g2" />
  <g
   id="g2">
    <path
   d="M2.48,20.74h4.5v-9.86c0-1.37,1.11-2.48,2.48-2.48h4.41V2.48c0-1.37,1.11-2.48,2.48-2.48h40.26c1.37,0,2.48,1.11,2.48,2.48 V8.4h54.3c1.37,0,2.48,1.11,2.48,2.48v9.86h4.53c1.37,0,2.48,1.11,2.48,2.48c0,0.18-0.02,0.36-0.06,0.52l-8.68,63.81 c-0.28,2.08-1.19,4.01-2.59,5.41c-1.38,1.38-3.21,2.24-5.36,2.24H14.7c-2.16,0-4.03-0.87-5.43-2.26c-1.41-1.41-2.31-3.35-2.54-5.46 l-6.72-64c-0.14-1.36,0.85-2.58,2.21-2.72C2.31,20.75,2.39,20.75,2.48,20.74L2.48,20.74L2.48,20.74z M9.46,25.71H5.23l6.43,61.27 c0.1,0.98,0.5,1.85,1.1,2.46c0.5,0.5,1.17,0.81,1.93,0.81h91.5c0.75,0,1.38-0.3,1.87-0.79c0.62-0.62,1.03-1.53,1.17-2.55 l8.32-61.19H9.46L9.46,25.71z M11.94,13.37v7.36l98.97-1.05v-6.31h-54.3c-1.37,0-2.48-1.11-2.48-2.48V4.97h-35.3v5.92 c0,1.37-1.11,2.48-2.48,2.48H11.94L11.94,13.37z"
   id="path1" />
    <path
   transform-origin="center"
   fill-rule="nonzero"
   d="m 43.845796,36.8605 h 35.1889 c 2.1902,0 4.1854,0.9115 5.6353,2.3619 1.461705,1.4617 2.370005,3.4754 2.370005,5.6607 v 25.4438 c 0,2.1804 -0.9175,4.1898 -2.376605,5.6477 -1.4574,1.458 -3.4591,2.3749 -5.6287,2.3749 h -35.1889 c -2.1744,0 -4.1827,-0.9076 -5.6423,-2.3683 -1.4514,-1.4509 -2.3635,-3.4521 -2.3635,-5.6543 V 44.8831 c 0,-2.2065 0.9028,-4.2131 2.357,-5.6672 1.4531,-1.4532 3.4531,-2.3554 5.6488,-2.3554 z m 23.3541,27.9208 h -5.5233 V 50.4255 h 5.4673 c 1.477,0 2.7535,0.2857 3.8324,0.8582 1.0755,0.5726 1.9082,1.395 2.4933,2.4673 0.5855,1.0723 0.8822,2.3586 0.8822,3.8524 0,1.4965 -0.2928,2.7796 -0.8784,3.8519 -0.5823,1.0728 -1.4113,1.8952 -2.4808,2.4672 -1.0691,0.5726 -2.3353,0.8588 -3.7927,0.8588 z m -1.6253,-3.3092 h 1.4868 c 0.711,0 1.3161,-0.1119 1.8192,-0.3422 0.5003,-0.2303 0.8849,-0.6252 1.1483,-1.1842 0.2629,-0.5628 0.3949,-1.3423 0.3949,-2.3423 0,-1.0001 -0.132,-1.7796 -0.4014,-2.339 -0.27,-0.5628 -0.6611,-0.9572 -1.1777,-1.1875 -0.5166,-0.2271 -1.1483,-0.3422 -1.8947,-0.3422 h -1.3754 z m -16.822,3.3092 v -2.8029 l 5.3555,-4.4309 c 0.3552,-0.2928 0.6583,-0.5694 0.9147,-0.829 0.2531,-0.2602 0.4509,-0.5296 0.5889,-0.8029 0.1379,-0.2765 0.2075,-0.5823 0.2075,-0.918 0,-0.3715 -0.0794,-0.6871 -0.2374,-0.9473 -0.1543,-0.2629 -0.3716,-0.4639 -0.6481,-0.6052 -0.2759,-0.1445 -0.5921,-0.214 -0.9538,-0.214 -0.3586,0 -0.6742,0.0728 -0.9474,0.2173 -0.2765,0.145 -0.4867,0.3553 -0.635,0.6383 -0.151,0.2797 -0.2238,0.6181 -0.2238,1.0228 h -3.7009 c 0,-1.0098 0.2238,-1.8784 0.678,-2.6085 0.4541,-0.73 1.0956,-1.2895 1.9213,-1.6812 0.8257,-0.3943 1.7958,-0.5888 2.9078,-0.5888 1.1515,0 2.1484,0.1809 2.9903,0.5497 0.842,0.365 1.4971,0.8816 1.9539,1.546 0.4607,0.6611 0.691,1.4411 0.691,2.3325 0,0.5524 -0.1119,1.0984 -0.3422,1.6448 -0.2304,0.5427 -0.6415,1.1446 -1.2336,1.8057 -0.5921,0.6583 -1.4374,1.4411 -2.5298,2.352 l -1.3455,1.1223 v 0.0853 h 5.6059 v 3.112 z m 30.2821,-24.5877 h -35.1889 c -1.3004,0 -2.4792,0.5286 -3.3293,1.3787 -0.8496,0.8495 -1.3771,2.0218 -1.3771,3.3108 v 25.4438 c 0,1.2809 0.534,2.4488 1.3836,3.2978 0.8577,0.8583 2.0403,1.3917 3.3228,1.3917 h 35.1889 c 1.2744,0 2.4515,-0.5399 3.3092,-1.3982 0.8572,-0.8566 1.3967,-2.0283 1.3967,-3.2913 V 44.8831 c 0,-1.2711 -0.533,-2.4471 -1.3901,-3.3043 -0.8501,-0.8501 -2.024,-1.3852 -3.3158,-1.3852 z"
   id="path2"
   style="stroke-width:0.1" />
  </g>
</svg>
