<?xml version="1.0" encoding="UTF-8" standalone="no"?>
<svg
        version="1.1"
        id="Layer_1"
        x="0px"
        y="0px"
        viewBox="0 0 122.88 95.21"
        style="enable-background:new 0 0 122.88 95.21"
        xml:space="preserve"
        sodipodi:docname="3d-folder-icon.svg"
        inkscape:version="1.4 (86a8ad7, 2024-10-11)"
        xmlns:inkscape="http://www.inkscape.org/namespaces/inkscape"
        xmlns:sodipodi="http://sodipodi.sourceforge.net/DTD/sodipodi-0.dtd"
        xmlns="http://www.w3.org/2000/svg"
><defs
   id="defs2" /><sodipodi:namedview
   id="namedview2"
   pagecolor="#ffffff"
   bordercolor="#000000"
   borderopacity="0.25"
   inkscape:showpageshadow="2"
   inkscape:pageopacity="0.0"
   inkscape:pagecheckerboard="0"
   inkscape:deskcolor="#d1d1d1"
   inkscape:zoom="9.9096735"
   inkscape:cx="60.445988"
   inkscape:cy="48.084329"
   inkscape:window-width="2023"
   inkscape:window-height="1211"
   inkscape:window-x="351"
   inkscape:window-y="700"
   inkscape:window-maximized="0"
   inkscape:current-layer="g2" />
  <g
   id="g2">
    <path
   d="M2.48,20.74h4.5v-9.86c0-1.37,1.11-2.48,2.48-2.48h4.41V2.48c0-1.37,1.11-2.48,2.48-2.48h40.26c1.37,0,2.48,1.11,2.48,2.48 V8.4h54.3c1.37,0,2.48,1.11,2.48,2.48v9.86h4.53c1.37,0,2.48,1.11,2.48,2.48c0,0.18-0.02,0.36-0.06,0.52l-8.68,63.81 c-0.28,2.08-1.19,4.01-2.59,5.41c-1.38,1.38-3.21,2.24-5.36,2.24H14.7c-2.16,0-4.03-0.87-5.43-2.26c-1.41-1.41-2.31-3.35-2.54-5.46 l-6.72-64c-0.14-1.36,0.85-2.58,2.21-2.72C2.31,20.75,2.39,20.75,2.48,20.74L2.48,20.74L2.48,20.74z M9.46,25.71H5.23l6.43,61.27 c0.1,0.98,0.5,1.85,1.1,2.46c0.5,0.5,1.17,0.81,1.93,0.81h91.5c0.75,0,1.38-0.3,1.87-0.79c0.62-0.62,1.03-1.53,1.17-2.55 l8.32-61.19H9.46L9.46,25.71z M11.94,13.37v7.36l98.97-1.05v-6.31h-54.3c-1.37,0-2.48-1.11-2.48-2.48V4.97h-35.3v5.92 c0,1.37-1.11,2.48-2.48,2.48H11.94L11.94,13.37z"
   id="path1" />
    <path
   transform-origin="center"
   fill-rule="nonzero"
   d="m 43.845799,36.8605 h 35.1889 c 2.1902,0 4.1854,0.9115 5.6353,2.3619 1.4617,1.4617 2.37,3.4754 2.37,5.6607 v 25.4438 c 0,2.1804 -0.9175,4.1898 -2.3766,5.6477 -1.4574,1.458 -3.4591,2.3749 -5.6287,2.3749 h -35.1889 c -2.1744,0 -4.1827,-0.9076 -5.6423,-2.3683 -1.4514,-1.4509 -2.3635,-3.4521 -2.3635,-5.6543 V 44.8831 c 0,-2.2065 0.9028,-4.2131 2.357,-5.6672 1.4531,-1.4532 3.4531,-2.3554 5.6488,-2.3554 z m 10.2329,28.118 c -1.1288,0 -2.1321,-0.1972 -3.0104,-0.5856 -0.8746,-0.3911 -1.5623,-0.9305 -2.0626,-1.6149 -0.4997,-0.6877 -0.7534,-1.477 -0.7567,-2.3717 h 3.9247 c 0.0033,0.276 0.0891,0.5226 0.2569,0.7399 0.1641,0.2173 0.3911,0.3884 0.6807,0.5101 0.2895,0.1216 0.6219,0.1808 0.9968,0.1808 0.3585,0 0.6779,-0.0624 0.9538,-0.1906 0.2733,-0.132 0.4905,-0.3097 0.6448,-0.5362 0.1516,-0.2303 0.2271,-0.4938 0.2238,-0.7865 0.0033,-0.2896 -0.082,-0.546 -0.2629,-0.7698 -0.1809,-0.227 -0.4313,-0.4014 -0.7534,-0.5263 -0.3227,-0.1282 -0.6942,-0.1907 -1.1152,-0.1907 h -1.4574 v -2.691 h 1.4574 c 0.3884,0 0.73,-0.0625 1.0261,-0.1907 0.296,-0.1249 0.5296,-0.2993 0.6942,-0.5231 0.1678,-0.2271 0.2466,-0.4835 0.2434,-0.773 0.0032,-0.2797 -0.0625,-0.5264 -0.2038,-0.7436 -0.1417,-0.2141 -0.3356,-0.3814 -0.5855,-0.5036 -0.2499,-0.1217 -0.5394,-0.1809 -0.8653,-0.1809 -0.3553,0 -0.6709,0.0625 -0.9507,0.188 -0.2764,0.1281 -0.4964,0.3025 -0.6545,0.5263 -0.1581,0.2233 -0.2401,0.4802 -0.2467,0.7698 h -3.7274 c 0.0033,-0.8784 0.2466,-1.6552 0.7241,-2.326 0.4802,-0.6742 1.138,-1.2005 1.9734,-1.5857 0.8355,-0.3813 1.7964,-0.5725 2.8818,-0.5725 1.0592,0 1.9968,0.1776 2.8127,0.5394 0.8159,0.359 1.4542,0.8523 1.9148,1.4808 0.4601,0.6279 0.6872,1.3488 0.6839,2.1576 0.0098,0.8028 -0.2662,1.4607 -0.8257,1.974 -0.5557,0.5166 -1.2629,0.8192 -2.1185,0.9115 v 0.1152 c 1.1581,0.1249 2.03,0.4802 2.6155,1.0592 0.5824,0.5818 0.8719,1.3124 0.8616,2.1908 0.0032,0.8419 -0.2466,1.5856 -0.7529,2.2369 -0.5101,0.648 -1.2108,1.1581 -2.112,1.5264 -0.8985,0.3716 -1.9344,0.5557 -3.1088,0.5557 z m 13.4009,-0.1972 h -5.5233 V 50.4255 h 5.4674 c 1.477,0 2.7535,0.2857 3.8323,0.8582 1.0756,0.5726 1.9083,1.395 2.4933,2.4673 0.5856,1.0723 0.8822,2.3586 0.8822,3.8524 0,1.4965 -0.2928,2.7796 -0.8784,3.8519 -0.5823,1.0728 -1.4112,1.8952 -2.4808,2.4672 -1.069,0.5726 -2.3352,0.8588 -3.7927,0.8588 z m -1.6252,-3.3092 h 1.4867 c 0.7111,0 1.3162,-0.1119 1.8192,-0.3422 0.5003,-0.2303 0.8849,-0.6252 1.1484,-1.1842 0.2629,-0.5628 0.3949,-1.3423 0.3949,-2.3423 0,-1.0001 -0.132,-1.7796 -0.4014,-2.339 -0.27,-0.5628 -0.6611,-0.9572 -1.1777,-1.1875 -0.5166,-0.2271 -1.1484,-0.3422 -1.8947,-0.3422 h -1.3754 z m 13.1803,-21.2785 h -35.1889 c -1.3004,0 -2.4792,0.5286 -3.3293,1.3787 -0.8496,0.8495 -1.3771,2.0218 -1.3771,3.3108 v 25.4438 c 0,1.2809 0.534,2.4488 1.3836,3.2978 0.8577,0.8583 2.0403,1.3917 3.3228,1.3917 h 35.1889 c 1.2744,0 2.4515,-0.5399 3.3092,-1.3982 0.8572,-0.8566 1.3967,-2.0283 1.3967,-3.2913 V 44.8831 c 0,-1.2711 -0.533,-2.4471 -1.3901,-3.3043 -0.8501,-0.8501 -2.024,-1.3852 -3.3158,-1.3852 z"
   id="path2"
   style="stroke-width:0.1" />
  </g>
</svg>
