<?xml version="1.0" encoding="utf-8" ?>
<svg baseProfile="full" height="290" version="1.1" width="290" xmlns="http://www.w3.org/2000/svg" xmlns:ev="http://www.w3.org/2001/xml-events" xmlns:xlink="http://www.w3.org/1999/xlink"><defs /><rect fill="black" height="10" width="10" x="0" y="0" /><rect fill="black" height="10" width="10" x="10" y="0" /><rect fill="black" height="10" width="10" x="20" y="0" /><rect fill="black" height="10" width="10" x="30" y="0" /><rect fill="black" height="10" width="10" x="40" y="0" /><rect fill="black" height="10" width="10" x="50" y="0" /><rect fill="black" height="10" width="10" x="60" y="0" /><circle cx="125.0" cy="5.0" fill="black" r="5.0" /><circle cx="135.0" cy="5.0" fill="black" r="5.0" /><circle cx="155.0" cy="5.0" fill="black" r="5.0" /><circle cx="185.0" cy="5.0" fill="black" r="5.0" /><circle cx="195.0" cy="5.0" fill="black" r="5.0" /><circle cx="205.0" cy="5.0" fill="black" r="5.0" /><rect fill="black" height="10" width="10" x="220" y="0" /><rect fill="black" height="10" width="10" x="230" y="0" /><rect fill="black" height="10" width="10" x="240" y="0" /><rect fill="black" height="10" width="10" x="250" y="0" /><rect fill="black" height="10" width="10" x="260" y="0" /><rect fill="black" height="10" width="10" x="270" y="0" /><rect fill="black" height="10" width="10" x="280" y="0" /><rect fill="black" height="10" width="10" x="0" y="10" /><rect fill="black" height="10" width="10" x="60" y="10" /><circle cx="85.0" cy="15.0" fill="black" r="5.0" /><circle cx="95.0" cy="15.0" fill="black" r="5.0" /><circle cx="105.0" cy="15.0" fill="black" r="5.0" /><circle cx="145.0" cy="15.0" fill="black" r="5.0" /><circle cx="155.0" cy="15.0" fill="black" r="5.0" /><circle cx="175.0" cy="15.0" fill="black" r="5.0" /><circle cx="195.0" cy="15.0" fill="black" r="5.0" /><rect fill="black" height="10" width="10" x="220" y="10" /><rect fill="black" height="10" width="10" x="280" y="10" /><rect fill="black" height="10" width="10" x="0" y="20" /><rect fill="black" height="10" width="10" x="20" y="20" /><rect fill="black" height="10" width="10" x="30" y="20" /><rect fill="black" height="10" width="10" x="40" y="20" /><rect fill="black" height="10" width="10" x="60" y="20" /><circle cx="115.0" cy="25.0" fill="black" r="5.0" /><circle cx="125.0" cy="25.0" fill="black" r="5.0" /><circle cx="135.0" cy="25.0" fill="black" r="5.0" /><circle cx="175.0" cy="25.0" fill="black" r="5.0" /><circle cx="185.0" cy="25.0" fill="black" r="5.0" /><circle cx="195.0" cy="25.0" fill="black" r="5.0" /><circle cx="205.0" cy="25.0" fill="black" r="5.0" /><rect fill="black" height="10" width="10" x="220" y="20" /><rect fill="black" height="10" width="10" x="240" y="20" /><rect fill="black" height="10" width="10" x="250" y="20" /><rect fill="black" height="10" width="10" x="260" y="20" /><rect fill="black" height="10" width="10" x="280" y="20" /><rect fill="black" height="10" width="10" x="0" y="30" /><rect fill="black" height="10" width="10" x="20" y="30" /><rect fill="black" height="10" width="10" x="30" y="30" /><rect fill="black" height="10" width="10" x="40" y="30" /><rect fill="black" height="10" width="10" x="60" y="30" /><circle cx="95.0" cy="35.0" fill="black" r="5.0" /><circle cx="115.0" cy="35.0" fill="black" r="5.0" /><circle cx="125.0" cy="35.0" fill="black" r="5.0" /><circle cx="155.0" cy="35.0" fill="black" r="5.0" /><circle cx="195.0" cy="35.0" fill="black" r="5.0" /><circle cx="205.0" cy="35.0" fill="black" r="5.0" /><rect fill="black" height="10" width="10" x="220" y="30" /><rect fill="black" height="10" width="10" x="240" y="30" /><rect fill="black" height="10" width="10" x="250" y="30" /><rect fill="black" height="10" width="10" x="260" y="30" /><rect fill="black" height="10" width="10" x="280" y="30" /><rect fill="black" height="10" width="10" x="0" y="40" /><rect fill="black" height="10" width="10" x="20" y="40" /><rect fill="black" height="10" width="10" x="30" y="40" /><rect fill="black" height="10" width="10" x="40" y="40" /><rect fill="black" height="10" width="10" x="60" y="40" /><circle cx="95.0" cy="45.0" fill="black" r="5.0" /><circle cx="105.0" cy="45.0" fill="black" r="5.0" /><circle cx="115.0" cy="45.0" fill="black" r="5.0" /><circle cx="135.0" cy="45.0" fill="black" r="5.0" /><circle cx="145.0" cy="45.0" fill="black" r="5.0" /><circle cx="155.0" cy="45.0" fill="black" r="5.0" /><circle cx="165.0" cy="45.0" fill="black" r="5.0" /><circle cx="185.0" cy="45.0" fill="black" r="5.0" /><rect fill="black" height="10" width="10" x="220" y="40" /><rect fill="black" height="10" width="10" x="240" y="40" /><rect fill="black" height="10" width="10" x="250" y="40" /><rect fill="black" height="10" width="10" x="260" y="40" /><rect fill="black" height="10" width="10" x="280" y="40" /><rect fill="black" height="10" width="10" x="0" y="50" /><rect fill="black" height="10" width="10" x="60" y="50" /><circle cx="85.0" cy="55.0" fill="black" r="5.0" /><circle cx="105.0" cy="55.0" fill="black" r="5.0" /><circle cx="125.0" cy="55.0" fill="black" r="5.0" /><circle cx="155.0" cy="55.0" fill="black" r="5.0" /><circle cx="165.0" cy="55.0" fill="black" r="5.0" /><circle cx="185.0" cy="55.0" fill="black" r="5.0" /><circle cx="195.0" cy="55.0" fill="black" r="5.0" /><rect fill="black" height="10" width="10" x="220" y="50" /><rect fill="black" height="10" width="10" x="280" y="50" /><rect fill="black" height="10" width="10" x="0" y="60" /><rect fill="black" height="10" width="10" x="10" y="60" /><rect fill="black" height="10" width="10" x="20" y="60" /><rect fill="black" height="10" width="10" x="30" y="60" /><rect fill="black" height="10" width="10" x="40" y="60" /><rect fill="black" height="10" width="10" x="50" y="60" /><rect fill="black" height="10" width="10" x="60" y="60" /><circle cx="85.0" cy="65.0" fill="black" r="5.0" /><circle cx="105.0" cy="65.0" fill="black" r="5.0" /><circle cx="125.0" cy="65.0" fill="black" r="5.0" /><circle cx="145.0" cy="65.0" fill="black" r="5.0" /><circle cx="165.0" cy="65.0" fill="black" r="5.0" /><circle cx="185.0" cy="65.0" fill="black" r="5.0" /><circle cx="205.0" cy="65.0" fill="black" r="5.0" /><rect fill="black" height="10" width="10" x="220" y="60" /><rect fill="black" height="10" width="10" x="230" y="60" /><rect fill="black" height="10" width="10" x="240" y="60" /><rect fill="black" height="10" width="10" x="250" y="60" /><rect fill="black" height="10" width="10" x="260" y="60" /><rect fill="black" height="10" width="10" x="270" y="60" /><rect fill="black" height="10" width="10" x="280" y="60" /><circle cx="85.0" cy="75.0" fill="black" r="5.0" /><circle cx="95.0" cy="75.0" fill="black" r="5.0" /><circle cx="105.0" cy="75.0" fill="black" r="5.0" /><circle cx="115.0" cy="75.0" fill="black" r="5.0" /><circle cx="145.0" cy="75.0" fill="black" r="5.0" /><circle cx="165.0" cy="75.0" fill="black" r="5.0" /><circle cx="175.0" cy="75.0" fill="black" r="5.0" /><circle cx="195.0" cy="75.0" fill="black" r="5.0" /><circle cx="205.0" cy="75.0" fill="black" r="5.0" /><circle cx="45.0" cy="85.0" fill="black" r="5.0" /><circle cx="55.0" cy="85.0" fill="black" r="5.0" /><circle cx="65.0" cy="85.0" fill="black" r="5.0" /><circle cx="75.0" cy="85.0" fill="black" r="5.0" /><circle cx="95.0" cy="85.0" fill="black" r="5.0" /><circle cx="115.0" cy="85.0" fill="black" r="5.0" /><circle cx="145.0" cy="85.0" fill="black" r="5.0" /><circle cx="155.0" cy="85.0" fill="black" r="5.0" /><circle cx="185.0" cy="85.0" fill="black" r="5.0" /><circle cx="195.0" cy="85.0" fill="black" r="5.0" /><circle cx="205.0" cy="85.0" fill="black" r="5.0" /><circle cx="225.0" cy="85.0" fill="black" r="5.0" /><circle cx="235.0" cy="85.0" fill="black" r="5.0" /><circle cx="275.0" cy="85.0" fill="black" r="5.0" /><circle cx="15.0" cy="95.0" fill="black" r="5.0" /><circle cx="45.0" cy="95.0" fill="black" r="5.0" /><circle cx="75.0" cy="95.0" fill="black" r="5.0" /><circle cx="105.0" cy="95.0" fill="black" r="5.0" /><circle cx="115.0" cy="95.0" fill="black" r="5.0" /><circle cx="125.0" cy="95.0" fill="black" r="5.0" /><circle cx="145.0" cy="95.0" fill="black" r="5.0" /><circle cx="165.0" cy="95.0" fill="black" r="5.0" /><circle cx="185.0" cy="95.0" fill="black" r="5.0" /><circle cx="205.0" cy="95.0" fill="black" r="5.0" /><circle cx="225.0" cy="95.0" fill="black" r="5.0" /><circle cx="245.0" cy="95.0" fill="black" r="5.0" /><circle cx="275.0" cy="95.0" fill="black" r="5.0" /><circle cx="285.0" cy="95.0" fill="black" r="5.0" /><circle cx="15.0" cy="105.0" fill="black" r="5.0" /><circle cx="55.0" cy="105.0" fill="black" r="5.0" /><circle cx="65.0" cy="105.0" fill="black" r="5.0" /><circle cx="75.0" cy="105.0" fill="black" r="5.0" /><circle cx="125.0" cy="105.0" fill="black" r="5.0" /><circle cx="135.0" cy="105.0" fill="black" r="5.0" /><circle cx="145.0" cy="105.0" fill="black" r="5.0" /><circle cx="165.0" cy="105.0" fill="black" r="5.0" /><circle cx="175.0" cy="105.0" fill="black" r="5.0" /><circle cx="185.0" cy="105.0" fill="black" r="5.0" /><circle cx="205.0" cy="105.0" fill="black" r="5.0" /><circle cx="215.0" cy="105.0" fill="black" r="5.0" /><circle cx="255.0" cy="105.0" fill="black" r="5.0" /><circle cx="265.0" cy="105.0" fill="black" r="5.0" /><circle cx="285.0" cy="105.0" fill="black" r="5.0" /><circle cx="15.0" cy="115.0" fill="black" r="5.0" /><circle cx="25.0" cy="115.0" fill="black" r="5.0" /><circle cx="45.0" cy="115.0" fill="black" r="5.0" /><circle cx="55.0" cy="115.0" fill="black" r="5.0" /><circle cx="75.0" cy="115.0" fill="black" r="5.0" /><circle cx="85.0" cy="115.0" fill="black" r="5.0" /><circle cx="115.0" cy="115.0" fill="black" r="5.0" /><circle cx="165.0" cy="115.0" fill="black" r="5.0" /><circle cx="175.0" cy="115.0" fill="black" r="5.0" /><circle cx="185.0" cy="115.0" fill="black" r="5.0" /><circle cx="205.0" cy="115.0" fill="black" r="5.0" /><circle cx="215.0" cy="115.0" fill="black" r="5.0" /><circle cx="255.0" cy="115.0" fill="black" r="5.0" /><circle cx="275.0" cy="115.0" fill="black" r="5.0" /><circle cx="285.0" cy="115.0" fill="black" r="5.0" /><circle cx="15.0" cy="125.0" fill="black" r="5.0" /><circle cx="25.0" cy="125.0" fill="black" r="5.0" /><circle cx="35.0" cy="125.0" fill="black" r="5.0" /><circle cx="45.0" cy="125.0" fill="black" r="5.0" /><circle cx="65.0" cy="125.0" fill="black" r="5.0" /><circle cx="75.0" cy="125.0" fill="black" r="5.0" /><circle cx="95.0" cy="125.0" fill="black" r="5.0" /><circle cx="125.0" cy="125.0" fill="black" r="5.0" /><circle cx="135.0" cy="125.0" fill="black" r="5.0" /><circle cx="145.0" cy="125.0" fill="black" r="5.0" /><circle cx="155.0" cy="125.0" fill="black" r="5.0" /><circle cx="165.0" cy="125.0" fill="black" r="5.0" /><circle cx="235.0" cy="125.0" fill="black" r="5.0" /><circle cx="255.0" cy="125.0" fill="black" r="5.0" /><circle cx="285.0" cy="125.0" fill="black" r="5.0" /><circle cx="5.0" cy="135.0" fill="black" r="5.0" /><circle cx="25.0" cy="135.0" fill="black" r="5.0" /><circle cx="35.0" cy="135.0" fill="black" r="5.0" /><circle cx="55.0" cy="135.0" fill="black" r="5.0" /><circle cx="95.0" cy="135.0" fill="black" r="5.0" /><circle cx="135.0" cy="135.0" fill="black" r="5.0" /><circle cx="155.0" cy="135.0" fill="black" r="5.0" /><circle cx="185.0" cy="135.0" fill="black" r="5.0" /><circle cx="225.0" cy="135.0" fill="black" r="5.0" /><circle cx="245.0" cy="135.0" fill="black" r="5.0" /><circle cx="265.0" cy="135.0" fill="black" r="5.0" /><circle cx="285.0" cy="135.0" fill="black" r="5.0" /><circle cx="5.0" cy="145.0" fill="black" r="5.0" /><circle cx="35.0" cy="145.0" fill="black" r="5.0" /><circle cx="65.0" cy="145.0" fill="black" r="5.0" /><circle cx="85.0" cy="145.0" fill="black" r="5.0" /><circle cx="95.0" cy="145.0" fill="black" r="5.0" /><circle cx="125.0" cy="145.0" fill="black" r="5.0" /><circle cx="155.0" cy="145.0" fill="black" r="5.0" /><circle cx="165.0" cy="145.0" fill="black" r="5.0" /><circle cx="185.0" cy="145.0" fill="black" r="5.0" /><circle cx="205.0" cy="145.0" fill="black" r="5.0" /><circle cx="245.0" cy="145.0" fill="black" r="5.0" /><circle cx="285.0" cy="145.0" fill="black" r="5.0" /><circle cx="95.0" cy="155.0" fill="black" r="5.0" /><circle cx="125.0" cy="155.0" fill="black" r="5.0" /><circle cx="145.0" cy="155.0" fill="black" r="5.0" /><circle cx="165.0" cy="155.0" fill="black" r="5.0" /><circle cx="175.0" cy="155.0" fill="black" r="5.0" /><circle cx="195.0" cy="155.0" fill="black" r="5.0" /><circle cx="205.0" cy="155.0" fill="black" r="5.0" /><circle cx="215.0" cy="155.0" fill="black" r="5.0" /><circle cx="235.0" cy="155.0" fill="black" r="5.0" /><circle cx="255.0" cy="155.0" fill="black" r="5.0" /><circle cx="5.0" cy="165.0" fill="black" r="5.0" /><circle cx="15.0" cy="165.0" fill="black" r="5.0" /><circle cx="35.0" cy="165.0" fill="black" r="5.0" /><circle cx="65.0" cy="165.0" fill="black" r="5.0" /><circle cx="75.0" cy="165.0" fill="black" r="5.0" /><circle cx="105.0" cy="165.0" fill="black" r="5.0" /><circle cx="115.0" cy="165.0" fill="black" r="5.0" /><circle cx="135.0" cy="165.0" fill="black" r="5.0" /><circle cx="145.0" cy="165.0" fill="black" r="5.0" /><circle cx="155.0" cy="165.0" fill="black" r="5.0" /><circle cx="165.0" cy="165.0" fill="black" r="5.0" /><circle cx="175.0" cy="165.0" fill="black" r="5.0" /><circle cx="195.0" cy="165.0" fill="black" r="5.0" /><circle cx="205.0" cy="165.0" fill="black" r="5.0" /><circle cx="215.0" cy="165.0" fill="black" r="5.0" /><circle cx="275.0" cy="165.0" fill="black" r="5.0" /><circle cx="5.0" cy="175.0" fill="black" r="5.0" /><circle cx="35.0" cy="175.0" fill="black" r="5.0" /><circle cx="45.0" cy="175.0" fill="black" r="5.0" /><circle cx="55.0" cy="175.0" fill="black" r="5.0" /><circle cx="75.0" cy="175.0" fill="black" r="5.0" /><circle cx="85.0" cy="175.0" fill="black" r="5.0" /><circle cx="95.0" cy="175.0" fill="black" r="5.0" /><circle cx="105.0" cy="175.0" fill="black" r="5.0" /><circle cx="115.0" cy="175.0" fill="black" r="5.0" /><circle cx="155.0" cy="175.0" fill="black" r="5.0" /><circle cx="165.0" cy="175.0" fill="black" r="5.0" /><circle cx="185.0" cy="175.0" fill="black" r="5.0" /><circle cx="225.0" cy="175.0" fill="black" r="5.0" /><circle cx="235.0" cy="175.0" fill="black" r="5.0" /><circle cx="245.0" cy="175.0" fill="black" r="5.0" /><circle cx="285.0" cy="175.0" fill="black" r="5.0" /><circle cx="35.0" cy="185.0" fill="black" r="5.0" /><circle cx="45.0" cy="185.0" fill="black" r="5.0" /><circle cx="55.0" cy="185.0" fill="black" r="5.0" /><circle cx="65.0" cy="185.0" fill="black" r="5.0" /><circle cx="85.0" cy="185.0" fill="black" r="5.0" /><circle cx="95.0" cy="185.0" fill="black" r="5.0" /><circle cx="105.0" cy="185.0" fill="black" r="5.0" /><circle cx="125.0" cy="185.0" fill="black" r="5.0" /><circle cx="155.0" cy="185.0" fill="black" r="5.0" /><circle cx="165.0" cy="185.0" fill="black" r="5.0" /><circle cx="175.0" cy="185.0" fill="black" r="5.0" /><circle cx="185.0" cy="185.0" fill="black" r="5.0" /><circle cx="205.0" cy="185.0" fill="black" r="5.0" /><circle cx="235.0" cy="185.0" fill="black" r="5.0" /><circle cx="255.0" cy="185.0" fill="black" r="5.0" /><circle cx="265.0" cy="185.0" fill="black" r="5.0" /><circle cx="285.0" cy="185.0" fill="black" r="5.0" /><circle cx="35.0" cy="195.0" fill="black" r="5.0" /><circle cx="45.0" cy="195.0" fill="black" r="5.0" /><circle cx="75.0" cy="195.0" fill="black" r="5.0" /><circle cx="95.0" cy="195.0" fill="black" r="5.0" /><circle cx="105.0" cy="195.0" fill="black" r="5.0" /><circle cx="125.0" cy="195.0" fill="black" r="5.0" /><circle cx="185.0" cy="195.0" fill="black" r="5.0" /><circle cx="195.0" cy="195.0" fill="black" r="5.0" /><circle cx="205.0" cy="195.0" fill="black" r="5.0" /><circle cx="245.0" cy="195.0" fill="black" r="5.0" /><circle cx="255.0" cy="195.0" fill="black" r="5.0" /><circle cx="5.0" cy="205.0" fill="black" r="5.0" /><circle cx="15.0" cy="205.0" fill="black" r="5.0" /><circle cx="25.0" cy="205.0" fill="black" r="5.0" /><circle cx="55.0" cy="205.0" fill="black" r="5.0" /><circle cx="65.0" cy="205.0" fill="black" r="5.0" /><circle cx="85.0" cy="205.0" fill="black" r="5.0" /><circle cx="125.0" cy="205.0" fill="black" r="5.0" /><circle cx="135.0" cy="205.0" fill="black" r="5.0" /><circle cx="145.0" cy="205.0" fill="black" r="5.0" /><circle cx="175.0" cy="205.0" fill="black" r="5.0" /><circle cx="205.0" cy="205.0" fill="black" r="5.0" /><circle cx="215.0" cy="205.0" fill="black" r="5.0" /><circle cx="225.0" cy="205.0" fill="black" r="5.0" /><circle cx="235.0" cy="205.0" fill="black" r="5.0" /><circle cx="245.0" cy="205.0" fill="black" r="5.0" /><circle cx="255.0" cy="205.0" fill="black" r="5.0" /><circle cx="275.0" cy="205.0" fill="black" r="5.0" /><circle cx="85.0" cy="215.0" fill="black" r="5.0" /><circle cx="105.0" cy="215.0" fill="black" r="5.0" /><circle cx="115.0" cy="215.0" fill="black" r="5.0" /><circle cx="125.0" cy="215.0" fill="black" r="5.0" /><circle cx="135.0" cy="215.0" fill="black" r="5.0" /><circle cx="205.0" cy="215.0" fill="black" r="5.0" /><circle cx="245.0" cy="215.0" fill="black" r="5.0" /><circle cx="265.0" cy="215.0" fill="black" r="5.0" /><circle cx="285.0" cy="215.0" fill="black" r="5.0" /><rect fill="black" height="10" width="10" x="0" y="220" /><rect fill="black" height="10" width="10" x="10" y="220" /><rect fill="black" height="10" width="10" x="20" y="220" /><rect fill="black" height="10" width="10" x="30" y="220" /><rect fill="black" height="10" width="10" x="40" y="220" /><rect fill="black" height="10" width="10" x="50" y="220" /><rect fill="black" height="10" width="10" x="60" y="220" /><circle cx="85.0" cy="225.0" fill="black" r="5.0" /><circle cx="105.0" cy="225.0" fill="black" r="5.0" /><circle cx="115.0" cy="225.0" fill="black" r="5.0" /><circle cx="195.0" cy="225.0" fill="black" r="5.0" /><circle cx="205.0" cy="225.0" fill="black" r="5.0" /><circle cx="225.0" cy="225.0" fill="black" r="5.0" /><circle cx="245.0" cy="225.0" fill="black" r="5.0" /><circle cx="285.0" cy="225.0" fill="black" r="5.0" /><rect fill="black" height="10" width="10" x="0" y="230" /><rect fill="black" height="10" width="10" x="60" y="230" /><circle cx="85.0" cy="235.0" fill="black" r="5.0" /><circle cx="95.0" cy="235.0" fill="black" r="5.0" /><circle cx="105.0" cy="235.0" fill="black" r="5.0" /><circle cx="155.0" cy="235.0" fill="black" r="5.0" /><circle cx="175.0" cy="235.0" fill="black" r="5.0" /><circle cx="185.0" cy="235.0" fill="black" r="5.0" /><circle cx="195.0" cy="235.0" fill="black" r="5.0" /><circle cx="205.0" cy="235.0" fill="black" r="5.0" /><circle cx="245.0" cy="235.0" fill="black" r="5.0" /><circle cx="255.0" cy="235.0" fill="black" r="5.0" /><circle cx="275.0" cy="235.0" fill="black" r="5.0" /><rect fill="black" height="10" width="10" x="0" y="240" /><rect fill="black" height="10" width="10" x="20" y="240" /><rect fill="black" height="10" width="10" x="30" y="240" /><rect fill="black" height="10" width="10" x="40" y="240" /><rect fill="black" height="10" width="10" x="60" y="240" /><circle cx="85.0" cy="245.0" fill="black" r="5.0" /><circle cx="145.0" cy="245.0" fill="black" r="5.0" /><circle cx="175.0" cy="245.0" fill="black" r="5.0" /><circle cx="195.0" cy="245.0" fill="black" r="5.0" /><circle cx="205.0" cy="245.0" fill="black" r="5.0" /><circle cx="215.0" cy="245.0" fill="black" r="5.0" /><circle cx="225.0" cy="245.0" fill="black" r="5.0" /><circle cx="235.0" cy="245.0" fill="black" r="5.0" /><circle cx="245.0" cy="245.0" fill="black" r="5.0" /><circle cx="275.0" cy="245.0" fill="black" r="5.0" /><circle cx="285.0" cy="245.0" fill="black" r="5.0" /><rect fill="black" height="10" width="10" x="0" y="250" /><rect fill="black" height="10" width="10" x="20" y="250" /><rect fill="black" height="10" width="10" x="30" y="250" /><rect fill="black" height="10" width="10" x="40" y="250" /><rect fill="black" height="10" width="10" x="60" y="250" /><circle cx="135.0" cy="255.0" fill="black" r="5.0" /><circle cx="175.0" cy="255.0" fill="black" r="5.0" /><circle cx="235.0" cy="255.0" fill="black" r="5.0" /><circle cx="265.0" cy="255.0" fill="black" r="5.0" /><circle cx="275.0" cy="255.0" fill="black" r="5.0" /><rect fill="black" height="10" width="10" x="0" y="260" /><rect fill="black" height="10" width="10" x="20" y="260" /><rect fill="black" height="10" width="10" x="30" y="260" /><rect fill="black" height="10" width="10" x="40" y="260" /><rect fill="black" height="10" width="10" x="60" y="260" /><circle cx="95.0" cy="265.0" fill="black" r="5.0" /><circle cx="105.0" cy="265.0" fill="black" r="5.0" /><circle cx="135.0" cy="265.0" fill="black" r="5.0" /><circle cx="145.0" cy="265.0" fill="black" r="5.0" /><circle cx="175.0" cy="265.0" fill="black" r="5.0" /><circle cx="185.0" cy="265.0" fill="black" r="5.0" /><circle cx="195.0" cy="265.0" fill="black" r="5.0" /><circle cx="205.0" cy="265.0" fill="black" r="5.0" /><circle cx="215.0" cy="265.0" fill="black" r="5.0" /><circle cx="255.0" cy="265.0" fill="black" r="5.0" /><circle cx="265.0" cy="265.0" fill="black" r="5.0" /><circle cx="275.0" cy="265.0" fill="black" r="5.0" /><circle cx="285.0" cy="265.0" fill="black" r="5.0" /><rect fill="black" height="10" width="10" x="0" y="270" /><rect fill="black" height="10" width="10" x="60" y="270" /><circle cx="135.0" cy="275.0" fill="black" r="5.0" /><circle cx="165.0" cy="275.0" fill="black" r="5.0" /><circle cx="205.0" cy="275.0" fill="black" r="5.0" /><circle cx="215.0" cy="275.0" fill="black" r="5.0" /><circle cx="225.0" cy="275.0" fill="black" r="5.0" /><circle cx="235.0" cy="275.0" fill="black" r="5.0" /><circle cx="255.0" cy="275.0" fill="black" r="5.0" /><circle cx="275.0" cy="275.0" fill="black" r="5.0" /><circle cx="285.0" cy="275.0" fill="black" r="5.0" /><rect fill="black" height="10" width="10" x="0" y="280" /><rect fill="black" height="10" width="10" x="10" y="280" /><rect fill="black" height="10" width="10" x="20" y="280" /><rect fill="black" height="10" width="10" x="30" y="280" /><rect fill="black" height="10" width="10" x="40" y="280" /><rect fill="black" height="10" width="10" x="50" y="280" /><rect fill="black" height="10" width="10" x="60" y="280" /><circle cx="115.0" cy="285.0" fill="black" r="5.0" /><circle cx="125.0" cy="285.0" fill="black" r="5.0" /><circle cx="155.0" cy="285.0" fill="black" r="5.0" /><circle cx="165.0" cy="285.0" fill="black" r="5.0" /><circle cx="185.0" cy="285.0" fill="black" r="5.0" /><circle cx="205.0" cy="285.0" fill="black" r="5.0" /><circle cx="215.0" cy="285.0" fill="black" r="5.0" /><circle cx="225.0" cy="285.0" fill="black" r="5.0" /><circle cx="245.0" cy="285.0" fill="black" r="5.0" /><circle cx="255.0" cy="285.0" fill="black" r="5.0" /><circle cx="275.0" cy="285.0" fill="black" r="5.0" /><rect fill="white" height="70" width="70" x="110" y="110" /></svg>