<svg width="1200" height="675" viewBox="0 0 1200 675" fill="none" xmlns="http://www.w3.org/2000/svg">
<g clip-path="url(#clip0_1_2)">
<path d="M631.6 181.7C641.707 181.7 649.9 173.507 649.9 163.4C649.9 153.293 641.707 145.1 631.6 145.1C621.493 145.1 613.3 153.293 613.3 163.4C613.3 173.507 621.493 181.7 631.6 181.7Z" fill="#EC5E80"/>
<path d="M629.3 187.5C640.014 187.5 648.7 178.814 648.7 168.1C648.7 157.386 640.014 148.7 629.3 148.7C618.586 148.7 609.9 157.386 609.9 168.1C609.9 178.814 618.586 187.5 629.3 187.5Z" stroke="black" stroke-width="3" stroke-miterlimit="10"/>
<path d="M689.1 134.1C699.207 134.1 707.4 125.907 707.4 115.8C707.4 105.693 699.207 97.5 689.1 97.5C678.993 97.5 670.8 105.693 670.8 115.8C670.8 125.907 678.993 134.1 689.1 134.1Z" fill="#EC5E80"/>
<path d="M686.8 140C697.514 140 706.2 131.314 706.2 120.6C706.2 109.886 697.514 101.2 686.8 101.2C676.086 101.2 667.4 109.886 667.4 120.6C667.4 131.314 676.086 140 686.8 140Z" stroke="black" stroke-width="3" stroke-miterlimit="10"/>
<path d="M626.5 148.9L689.5 139.8" stroke="black" stroke-width="3" stroke-miterlimit="10"/>
<path d="M560.5 159.3C570.607 159.3 578.8 151.107 578.8 141C578.8 130.893 570.607 122.7 560.5 122.7C550.393 122.7 542.2 130.893 542.2 141C542.2 151.107 550.393 159.3 560.5 159.3Z" fill="#EC5E80"/>
<path d="M558.2 165.2C568.914 165.2 577.6 156.514 577.6 145.8C577.6 135.086 568.914 126.4 558.2 126.4C547.486 126.4 538.8 135.086 538.8 145.8C538.8 156.514 547.486 165.2 558.2 165.2Z" stroke="black" stroke-width="3" stroke-miterlimit="10"/>
<path d="M756.8 165.2C766.907 165.2 775.1 157.007 775.1 146.9C775.1 136.793 766.907 128.6 756.8 128.6C746.693 128.6 738.5 136.793 738.5 146.9C738.5 157.007 746.693 165.2 756.8 165.2Z" fill="#EC5E80"/>
<path d="M754.5 171.1C765.214 171.1 773.9 162.414 773.9 151.7C773.9 140.986 765.214 132.3 754.5 132.3C743.786 132.3 735.1 140.986 735.1 151.7C735.1 162.414 743.786 171.1 754.5 171.1Z" stroke="black" stroke-width="3" stroke-miterlimit="10"/>
<path d="M814.2 117.6C824.307 117.6 832.5 109.407 832.5 99.3C832.5 89.1932 824.307 81 814.2 81C804.093 81 795.9 89.1932 795.9 99.3C795.9 109.407 804.093 117.6 814.2 117.6Z" fill="#EC5E80"/>
<path d="M811.9 123.5C822.614 123.5 831.3 114.814 831.3 104.1C831.3 93.3857 822.614 84.7 811.9 84.7C801.186 84.7 792.5 93.3857 792.5 104.1C792.5 114.814 801.186 123.5 811.9 123.5Z" stroke="black" stroke-width="3" stroke-miterlimit="10"/>
<path d="M751.7 132.5L814.7 123.4" stroke="black" stroke-width="3" stroke-miterlimit="10"/>
<path d="M883.6 145.3C893.707 145.3 901.9 137.107 901.9 127C901.9 116.893 893.707 108.7 883.6 108.7C873.493 108.7 865.3 116.893 865.3 127C865.3 137.107 873.493 145.3 883.6 145.3Z" fill="#EC5E80"/>
<path d="M881.3 151.2C892.014 151.2 900.7 142.514 900.7 131.8C900.7 121.086 892.014 112.4 881.3 112.4C870.586 112.4 861.9 121.086 861.9 131.8C861.9 142.514 870.586 151.2 881.3 151.2Z" stroke="black" stroke-width="3" stroke-miterlimit="10"/>
<path d="M941 97.7C951.107 97.7 959.3 89.5068 959.3 79.4C959.3 69.2932 951.107 61.1 941 61.1C930.893 61.1 922.7 69.2932 922.7 79.4C922.7 89.5068 930.893 97.7 941 97.7Z" fill="#EC5E80"/>
<path d="M938.7 103.6C949.414 103.6 958.1 94.9143 958.1 84.2C958.1 73.4857 949.414 64.8 938.7 64.8C927.986 64.8 919.3 73.4857 919.3 84.2C919.3 94.9143 927.986 103.6 938.7 103.6Z" stroke="black" stroke-width="3" stroke-miterlimit="10"/>
<path d="M878.5 112.5L941.5 103.4" stroke="black" stroke-width="3" stroke-miterlimit="10"/>
<path d="M1008.8 128.9C1018.91 128.9 1027.1 120.707 1027.1 110.6C1027.1 100.493 1018.91 92.3 1008.8 92.3C998.693 92.3 990.5 100.493 990.5 110.6C990.5 120.707 998.693 128.9 1008.8 128.9Z" fill="#EC5E80"/>
<path d="M1006.5 134.7C1017.21 134.7 1025.9 126.014 1025.9 115.3C1025.9 104.586 1017.21 95.9 1006.5 95.9C995.786 95.9 987.1 104.586 987.1 115.3C987.1 126.014 995.786 134.7 1006.5 134.7Z" stroke="black" stroke-width="3" stroke-miterlimit="10"/>
<path d="M1066.2 81.3C1076.31 81.3 1084.5 73.1068 1084.5 63C1084.5 52.8932 1076.31 44.7 1066.2 44.7C1056.09 44.7 1047.9 52.8932 1047.9 63C1047.9 73.1068 1056.09 81.3 1066.2 81.3Z" fill="#EC5E80"/>
<path d="M1063.9 87.2C1074.61 87.2 1083.3 78.5143 1083.3 67.8C1083.3 57.0857 1074.61 48.4 1063.9 48.4C1053.19 48.4 1044.5 57.0857 1044.5 67.8C1044.5 78.5143 1053.19 87.2 1063.9 87.2Z" stroke="black" stroke-width="3" stroke-miterlimit="10"/>
<path d="M1003.7 96.1L1066.7 87" stroke="black" stroke-width="3" stroke-miterlimit="10"/>
<path d="M1133.5 109.2C1143.61 109.2 1151.8 101.007 1151.8 90.9C1151.8 80.7932 1143.61 72.6 1133.5 72.6C1123.39 72.6 1115.2 80.7932 1115.2 90.9C1115.2 101.007 1123.39 109.2 1133.5 109.2Z" fill="#EC5E80"/>
<path d="M1131.2 115.1C1141.91 115.1 1150.6 106.414 1150.6 95.7C1150.6 84.9857 1141.91 76.3 1131.2 76.3C1120.49 76.3 1111.8 84.9857 1111.8 95.7C1111.8 106.414 1120.49 115.1 1131.2 115.1Z" stroke="black" stroke-width="3" stroke-miterlimit="10"/>
<path d="M1190.9 61.7C1201.01 61.7 1209.2 53.5068 1209.2 43.4C1209.2 33.2932 1201.01 25.1 1190.9 25.1C1180.79 25.1 1172.6 33.2932 1172.6 43.4C1172.6 53.5068 1180.79 61.7 1190.9 61.7Z" fill="#EC5E80"/>
<path d="M1188.6 67.5C1199.31 67.5 1208 58.8143 1208 48.1C1208 37.3857 1199.31 28.7 1188.6 28.7C1177.89 28.7 1169.2 37.3857 1169.2 48.1C1169.2 58.8143 1177.89 67.5 1188.6 67.5Z" stroke="black" stroke-width="3" stroke-miterlimit="10"/>
<path d="M1128.4 76.5L1191.4 67.4" stroke="black" stroke-width="3" stroke-miterlimit="10"/>
<path d="M637.3 262.7C647.407 262.7 655.6 254.507 655.6 244.4C655.6 234.293 647.407 226.1 637.3 226.1C627.193 226.1 619 234.293 619 244.4C619 254.507 627.193 262.7 637.3 262.7Z" fill="#EC5E80"/>
<path d="M640.9 267.7C651.614 267.7 660.3 259.014 660.3 248.3C660.3 237.586 651.614 228.9 640.9 228.9C630.186 228.9 621.5 237.586 621.5 248.3C621.5 259.014 630.186 267.7 640.9 267.7Z" stroke="black" stroke-width="3" stroke-miterlimit="10"/>
<path d="M568.8 233.3C578.907 233.3 587.1 225.107 587.1 215C587.1 204.893 578.907 196.7 568.8 196.7C558.693 196.7 550.5 204.893 550.5 215C550.5 225.107 558.693 233.3 568.8 233.3Z" fill="#EC5E80"/>
<path d="M572.4 238.3C583.114 238.3 591.8 229.614 591.8 218.9C591.8 208.186 583.114 199.5 572.4 199.5C561.686 199.5 553 208.186 553 218.9C553 229.614 561.686 238.3 572.4 238.3Z" stroke="black" stroke-width="3" stroke-miterlimit="10"/>
<path d="M638.1 229.1L575.1 238.2" stroke="black" stroke-width="3" stroke-miterlimit="10"/>
<path d="M762.5 246.3C772.607 246.3 780.8 238.107 780.8 228C780.8 217.893 772.607 209.7 762.5 209.7C752.393 209.7 744.2 217.893 744.2 228C744.2 238.107 752.393 246.3 762.5 246.3Z" fill="#EC5E80"/>
<path d="M766.1 251.3C776.814 251.3 785.5 242.614 785.5 231.9C785.5 221.186 776.814 212.5 766.1 212.5C755.386 212.5 746.7 221.186 746.7 231.9C746.7 242.614 755.386 251.3 766.1 251.3Z" stroke="black" stroke-width="3" stroke-miterlimit="10"/>
<path d="M693.9 216.9C704.007 216.9 712.2 208.707 712.2 198.6C712.2 188.493 704.007 180.3 693.9 180.3C683.793 180.3 675.6 188.493 675.6 198.6C675.6 208.707 683.793 216.9 693.9 216.9Z" fill="#EC5E80"/>
<path d="M697.5 221.9C708.214 221.9 716.9 213.214 716.9 202.5C716.9 191.786 708.214 183.1 697.5 183.1C686.786 183.1 678.1 191.786 678.1 202.5C678.1 213.214 686.786 221.9 697.5 221.9Z" stroke="black" stroke-width="3" stroke-miterlimit="10"/>
<path d="M763.3 212.6L700.3 221.7" stroke="black" stroke-width="3" stroke-miterlimit="10"/>
<path d="M653.3 331.5C663.407 331.5 671.6 323.307 671.6 313.2C671.6 303.093 663.407 294.9 653.3 294.9C643.193 294.9 635 303.093 635 313.2C635 323.307 643.193 331.5 653.3 331.5Z" fill="#EC5E80"/>
<path d="M651 337.4C661.714 337.4 670.4 328.714 670.4 318C670.4 307.286 661.714 298.6 651 298.6C640.286 298.6 631.6 307.286 631.6 318C631.6 328.714 640.286 337.4 651 337.4Z" stroke="black" stroke-width="3" stroke-miterlimit="10"/>
<path d="M710.7 283.9C720.807 283.9 729 275.707 729 265.6C729 255.493 720.807 247.3 710.7 247.3C700.593 247.3 692.4 255.493 692.4 265.6C692.4 275.707 700.593 283.9 710.7 283.9Z" fill="#EC5E80"/>
<path d="M708.4 289.8C719.114 289.8 727.8 281.114 727.8 270.4C727.8 259.686 719.114 251 708.4 251C697.686 251 689 259.686 689 270.4C689 281.114 697.686 289.8 708.4 289.8Z" stroke="black" stroke-width="3" stroke-miterlimit="10"/>
<path d="M648.2 298.7L711.2 289.6" stroke="black" stroke-width="3" stroke-miterlimit="10"/>
<path d="M783.2 389.7C793.307 389.7 801.5 381.507 801.5 371.4C801.5 361.293 793.307 353.1 783.2 353.1C773.093 353.1 764.9 361.293 764.9 371.4C764.9 381.507 773.093 389.7 783.2 389.7Z" fill="#EC5E80"/>
<path d="M786.8 394.7C797.514 394.7 806.2 386.014 806.2 375.3C806.2 364.586 797.514 355.9 786.8 355.9C776.086 355.9 767.4 364.586 767.4 375.3C767.4 386.014 776.086 394.7 786.8 394.7Z" stroke="black" stroke-width="3" stroke-miterlimit="10"/>
<path d="M714.6 360.3C724.707 360.3 732.9 352.107 732.9 342C732.9 331.893 724.707 323.7 714.6 323.7C704.493 323.7 696.3 331.893 696.3 342C696.3 352.107 704.493 360.3 714.6 360.3Z" fill="#EC5E80"/>
<path d="M718.2 365.3C728.914 365.3 737.6 356.614 737.6 345.9C737.6 335.186 728.914 326.5 718.2 326.5C707.486 326.5 698.8 335.186 698.8 345.9C698.8 356.614 707.486 365.3 718.2 365.3Z" stroke="black" stroke-width="3" stroke-miterlimit="10"/>
<path d="M784 356.1L721 365.2" stroke="black" stroke-width="3" stroke-miterlimit="10"/>
<path d="M887.2 226.6C897.307 226.6 905.5 218.407 905.5 208.3C905.5 198.193 897.307 190 887.2 190C877.093 190 868.9 198.193 868.9 208.3C868.9 218.407 877.093 226.6 887.2 226.6Z" fill="#EC5E80"/>
<path d="M890.7 231.7C901.414 231.7 910.1 223.014 910.1 212.3C910.1 201.586 901.414 192.9 890.7 192.9C879.986 192.9 871.3 201.586 871.3 212.3C871.3 223.014 879.986 231.7 890.7 231.7Z" stroke="black" stroke-width="3" stroke-miterlimit="10"/>
<path d="M818.6 197.2C828.707 197.2 836.9 189.007 836.9 178.9C836.9 168.793 828.707 160.6 818.6 160.6C808.493 160.6 800.3 168.793 800.3 178.9C800.3 189.007 808.493 197.2 818.6 197.2Z" fill="#EC5E80"/>
<path d="M822.2 202.3C832.914 202.3 841.6 193.614 841.6 182.9C841.6 172.186 832.914 163.5 822.2 163.5C811.486 163.5 802.8 172.186 802.8 182.9C802.8 193.614 811.486 202.3 822.2 202.3Z" stroke="black" stroke-width="3" stroke-miterlimit="10"/>
<path d="M888 193L825 202.1" stroke="black" stroke-width="3" stroke-miterlimit="10"/>
<path d="M778 311.9C788.107 311.9 796.3 303.707 796.3 293.6C796.3 283.493 788.107 275.3 778 275.3C767.893 275.3 759.7 283.493 759.7 293.6C759.7 303.707 767.893 311.9 778 311.9Z" fill="#EC5E80"/>
<path d="M775.6 317.8C786.314 317.8 795 309.114 795 298.4C795 287.686 786.314 279 775.6 279C764.886 279 756.2 287.686 756.2 298.4C756.2 309.114 764.886 317.8 775.6 317.8Z" stroke="black" stroke-width="3" stroke-miterlimit="10"/>
<path d="M835.4 264.3C845.507 264.3 853.7 256.107 853.7 246C853.7 235.893 845.507 227.7 835.4 227.7C825.293 227.7 817.1 235.893 817.1 246C817.1 256.107 825.293 264.3 835.4 264.3Z" fill="#EC5E80"/>
<path d="M833.1 270.2C843.814 270.2 852.5 261.514 852.5 250.8C852.5 240.086 843.814 231.4 833.1 231.4C822.386 231.4 813.7 240.086 813.7 250.8C813.7 261.514 822.386 270.2 833.1 270.2Z" stroke="black" stroke-width="3" stroke-miterlimit="10"/>
<path d="M772.9 279.1L835.8 270" stroke="black" stroke-width="3" stroke-miterlimit="10"/>
<path d="M908.3 373.3C918.407 373.3 926.6 365.107 926.6 355C926.6 344.893 918.407 336.7 908.3 336.7C898.193 336.7 890 344.893 890 355C890 365.107 898.193 373.3 908.3 373.3Z" fill="#EC5E80"/>
<path d="M911.9 378.3C922.614 378.3 931.3 369.614 931.3 358.9C931.3 348.186 922.614 339.5 911.9 339.5C901.186 339.5 892.5 348.186 892.5 358.9C892.5 369.614 901.186 378.3 911.9 378.3Z" stroke="black" stroke-width="3" stroke-miterlimit="10"/>
<path d="M839.8 343.9C849.907 343.9 858.1 335.707 858.1 325.6C858.1 315.493 849.907 307.3 839.8 307.3C829.693 307.3 821.5 315.493 821.5 325.6C821.5 335.707 829.693 343.9 839.8 343.9Z" fill="#EC5E80"/>
<path d="M843.4 348.9C854.114 348.9 862.8 340.214 862.8 329.5C862.8 318.786 854.114 310.1 843.4 310.1C832.686 310.1 824 318.786 824 329.5C824 340.214 832.686 348.9 843.4 348.9Z" stroke="black" stroke-width="3" stroke-miterlimit="10"/>
<path d="M909.1 339.7L846.1 348.8" stroke="black" stroke-width="3" stroke-miterlimit="10"/>
<path d="M799.1 458.5C809.207 458.5 817.4 450.307 817.4 440.2C817.4 430.093 809.207 421.9 799.1 421.9C788.993 421.9 780.8 430.093 780.8 440.2C780.8 450.307 788.993 458.5 799.1 458.5Z" fill="#EC5E80"/>
<path d="M796.8 464.4C807.514 464.4 816.2 455.714 816.2 445C816.2 434.286 807.514 425.6 796.8 425.6C786.086 425.6 777.4 434.286 777.4 445C777.4 455.714 786.086 464.4 796.8 464.4Z" stroke="black" stroke-width="3" stroke-miterlimit="10"/>
<path d="M856.5 410.9C866.607 410.9 874.8 402.707 874.8 392.6C874.8 382.493 866.607 374.3 856.5 374.3C846.393 374.3 838.2 382.493 838.2 392.6C838.2 402.707 846.393 410.9 856.5 410.9Z" fill="#EC5E80"/>
<path d="M854.2 416.8C864.914 416.8 873.6 408.114 873.6 397.4C873.6 386.686 864.914 378 854.2 378C843.486 378 834.8 386.686 834.8 397.4C834.8 408.114 843.486 416.8 854.2 416.8Z" stroke="black" stroke-width="3" stroke-miterlimit="10"/>
<path d="M794 425.8L857 416.7" stroke="black" stroke-width="3" stroke-miterlimit="10"/>
<path d="M722.7 428.7C732.807 428.7 741 420.507 741 410.4C741 400.293 732.807 392.1 722.7 392.1C712.593 392.1 704.4 400.293 704.4 410.4C704.4 420.507 712.593 428.7 722.7 428.7Z" fill="#EC5E80"/>
<path d="M720.4 434.5C731.114 434.5 739.8 425.814 739.8 415.1C739.8 404.386 731.114 395.7 720.4 395.7C709.686 395.7 701 404.386 701 415.1C701 425.814 709.686 434.5 720.4 434.5Z" stroke="black" stroke-width="3" stroke-miterlimit="10"/>
<path d="M1012.3 210.2C1022.41 210.2 1030.6 202.007 1030.6 191.9C1030.6 181.793 1022.41 173.6 1012.3 173.6C1002.19 173.6 994 181.793 994 191.9C994 202.007 1002.19 210.2 1012.3 210.2Z" fill="#EC5E80"/>
<path d="M1015.9 215.2C1026.61 215.2 1035.3 206.514 1035.3 195.8C1035.3 185.086 1026.61 176.4 1015.9 176.4C1005.19 176.4 996.5 185.086 996.5 195.8C996.5 206.514 1005.19 215.2 1015.9 215.2Z" stroke="black" stroke-width="3" stroke-miterlimit="10"/>
<path d="M943.8 180.8C953.907 180.8 962.1 172.607 962.1 162.5C962.1 152.393 953.907 144.2 943.8 144.2C933.693 144.2 925.5 152.393 925.5 162.5C925.5 172.607 933.693 180.8 943.8 180.8Z" fill="#EC5E80"/>
<path d="M947.4 185.8C958.114 185.8 966.8 177.114 966.8 166.4C966.8 155.686 958.114 147 947.4 147C936.686 147 928 155.686 928 166.4C928 177.114 936.686 185.8 947.4 185.8Z" stroke="black" stroke-width="3" stroke-miterlimit="10"/>
<path d="M1013.1 176.6L950.1 185.7" stroke="black" stroke-width="3" stroke-miterlimit="10"/>
<path d="M903.1 295.4C913.207 295.4 921.4 287.207 921.4 277.1C921.4 266.993 913.207 258.8 903.1 258.8C892.993 258.8 884.8 266.993 884.8 277.1C884.8 287.207 892.993 295.4 903.1 295.4Z" fill="#EC5E80"/>
<path d="M900.8 301.3C911.514 301.3 920.2 292.614 920.2 281.9C920.2 271.186 911.514 262.5 900.8 262.5C890.086 262.5 881.4 271.186 881.4 281.9C881.4 292.614 890.086 301.3 900.8 301.3Z" stroke="black" stroke-width="3" stroke-miterlimit="10"/>
<path d="M960.5 247.9C970.607 247.9 978.8 239.707 978.8 229.6C978.8 219.493 970.607 211.3 960.5 211.3C950.393 211.3 942.2 219.493 942.2 229.6C942.2 239.707 950.393 247.9 960.5 247.9Z" fill="#EC5E80"/>
<path d="M958.2 253.7C968.914 253.7 977.6 245.014 977.6 234.3C977.6 223.586 968.914 214.9 958.2 214.9C947.486 214.9 938.8 223.586 938.8 234.3C938.8 245.014 947.486 253.7 958.2 253.7Z" stroke="black" stroke-width="3" stroke-miterlimit="10"/>
<path d="M898 262.7L961 253.6" stroke="black" stroke-width="3" stroke-miterlimit="10"/>
<path d="M1035.2 353.3C1045.31 353.3 1053.5 345.107 1053.5 335C1053.5 324.893 1045.31 316.7 1035.2 316.7C1025.09 316.7 1016.9 324.893 1016.9 335C1016.9 345.107 1025.09 353.3 1035.2 353.3Z" fill="#EC5E80"/>
<path d="M1038.7 358.4C1049.41 358.4 1058.1 349.714 1058.1 339C1058.1 328.286 1049.41 319.6 1038.7 319.6C1027.99 319.6 1019.3 328.286 1019.3 339C1019.3 349.714 1027.99 358.4 1038.7 358.4Z" stroke="black" stroke-width="3" stroke-miterlimit="10"/>
<path d="M966.6 323.9C976.707 323.9 984.9 315.707 984.9 305.6C984.9 295.493 976.707 287.3 966.6 287.3C956.493 287.3 948.3 295.493 948.3 305.6C948.3 315.707 956.493 323.9 966.6 323.9Z" fill="#EC5E80"/>
<path d="M970.2 329C980.914 329 989.6 320.314 989.6 309.6C989.6 298.886 980.914 290.2 970.2 290.2C959.486 290.2 950.8 298.886 950.8 309.6C950.8 320.314 959.486 329 970.2 329Z" stroke="black" stroke-width="3" stroke-miterlimit="10"/>
<path d="M1036 319.7L973 328.8" stroke="black" stroke-width="3" stroke-miterlimit="10"/>
<path d="M925.9 438.6C936.007 438.6 944.2 430.407 944.2 420.3C944.2 410.193 936.007 402 925.9 402C915.793 402 907.6 410.193 907.6 420.3C907.6 430.407 915.793 438.6 925.9 438.6Z" fill="#EC5E80"/>
<path d="M923.6 444.5C934.314 444.5 943 435.814 943 425.1C943 414.386 934.314 405.7 923.6 405.7C912.886 405.7 904.2 414.386 904.2 425.1C904.2 435.814 912.886 444.5 923.6 444.5Z" stroke="black" stroke-width="3" stroke-miterlimit="10"/>
<path d="M983.4 391C993.507 391 1001.7 382.807 1001.7 372.7C1001.7 362.593 993.507 354.4 983.4 354.4C973.293 354.4 965.1 362.593 965.1 372.7C965.1 382.807 973.293 391 983.4 391Z" fill="#EC5E80"/>
<path d="M981.1 396.9C991.814 396.9 1000.5 388.214 1000.5 377.5C1000.5 366.786 991.814 358.1 981.1 358.1C970.386 358.1 961.7 366.786 961.7 377.5C961.7 388.214 970.386 396.9 981.1 396.9Z" stroke="black" stroke-width="3" stroke-miterlimit="10"/>
<path d="M920.9 405.8L983.8 396.7" stroke="black" stroke-width="3" stroke-miterlimit="10"/>
<path d="M1139.2 190.3C1149.31 190.3 1157.5 182.107 1157.5 172C1157.5 161.893 1149.31 153.7 1139.2 153.7C1129.09 153.7 1120.9 161.893 1120.9 172C1120.9 182.107 1129.09 190.3 1139.2 190.3Z" fill="#EC5E80"/>
<path d="M1142.7 195.3C1153.41 195.3 1162.1 186.614 1162.1 175.9C1162.1 165.186 1153.41 156.5 1142.7 156.5C1131.99 156.5 1123.3 165.186 1123.3 175.9C1123.3 186.614 1131.99 195.3 1142.7 195.3Z" stroke="black" stroke-width="3" stroke-miterlimit="10"/>
<path d="M1070.6 160.9C1080.71 160.9 1088.9 152.707 1088.9 142.6C1088.9 132.493 1080.71 124.3 1070.6 124.3C1060.49 124.3 1052.3 132.493 1052.3 142.6C1052.3 152.707 1060.49 160.9 1070.6 160.9Z" fill="#EC5E80"/>
<path d="M1074.2 165.9C1084.91 165.9 1093.6 157.214 1093.6 146.5C1093.6 135.786 1084.91 127.1 1074.2 127.1C1063.49 127.1 1054.8 135.786 1054.8 146.5C1054.8 157.214 1063.49 165.9 1074.2 165.9Z" stroke="black" stroke-width="3" stroke-miterlimit="10"/>
<path d="M1139.9 156.7L1077 165.7" stroke="black" stroke-width="3" stroke-miterlimit="10"/>
<path d="M1029.9 275.5C1040.01 275.5 1048.2 267.307 1048.2 257.2C1048.2 247.093 1040.01 238.9 1029.9 238.9C1019.79 238.9 1011.6 247.093 1011.6 257.2C1011.6 267.307 1019.79 275.5 1029.9 275.5Z" fill="#EC5E80"/>
<path d="M1027.6 281.4C1038.31 281.4 1047 272.714 1047 262C1047 251.286 1038.31 242.6 1027.6 242.6C1016.89 242.6 1008.2 251.286 1008.2 262C1008.2 272.714 1016.89 281.4 1027.6 281.4Z" stroke="black" stroke-width="3" stroke-miterlimit="10"/>
<path d="M1087.4 227.9C1097.51 227.9 1105.7 219.707 1105.7 209.6C1105.7 199.493 1097.51 191.3 1087.4 191.3C1077.29 191.3 1069.1 199.493 1069.1 209.6C1069.1 219.707 1077.29 227.9 1087.4 227.9Z" fill="#EC5E80"/>
<path d="M1085.1 233.8C1095.81 233.8 1104.5 225.114 1104.5 214.4C1104.5 203.686 1095.81 195 1085.1 195C1074.39 195 1065.7 203.686 1065.7 214.4C1065.7 225.114 1074.39 233.8 1085.1 233.8Z" stroke="black" stroke-width="3" stroke-miterlimit="10"/>
<path d="M1024.8 242.7L1087.8 233.7" stroke="black" stroke-width="3" stroke-miterlimit="10"/>
<path d="M1160.3 336.9C1170.41 336.9 1178.6 328.707 1178.6 318.6C1178.6 308.493 1170.41 300.3 1160.3 300.3C1150.19 300.3 1142 308.493 1142 318.6C1142 328.707 1150.19 336.9 1160.3 336.9Z" fill="#EC5E80"/>
<path d="M1163.9 341.9C1174.61 341.9 1183.3 333.214 1183.3 322.5C1183.3 311.786 1174.61 303.1 1163.9 303.1C1153.19 303.1 1144.5 311.786 1144.5 322.5C1144.5 333.214 1153.19 341.9 1163.9 341.9Z" stroke="black" stroke-width="3" stroke-miterlimit="10"/>
<path d="M1091.8 307.5C1101.91 307.5 1110.1 299.307 1110.1 289.2C1110.1 279.093 1101.91 270.9 1091.8 270.9C1081.69 270.9 1073.5 279.093 1073.5 289.2C1073.5 299.307 1081.69 307.5 1091.8 307.5Z" fill="#EC5E80"/>
<path d="M1095.3 312.5C1106.01 312.5 1114.7 303.814 1114.7 293.1C1114.7 282.386 1106.01 273.7 1095.3 273.7C1084.59 273.7 1075.9 282.386 1075.9 293.1C1075.9 303.814 1084.59 312.5 1095.3 312.5Z" stroke="black" stroke-width="3" stroke-miterlimit="10"/>
<path d="M1161.1 303.3L1098.1 312.4" stroke="black" stroke-width="3" stroke-miterlimit="10"/>
<path d="M1051.1 422.2C1061.21 422.2 1069.4 414.007 1069.4 403.9C1069.4 393.793 1061.21 385.6 1051.1 385.6C1040.99 385.6 1032.8 393.793 1032.8 403.9C1032.8 414.007 1040.99 422.2 1051.1 422.2Z" fill="#EC5E80"/>
<path d="M1048.8 428C1059.51 428 1068.2 419.314 1068.2 408.6C1068.2 397.886 1059.51 389.2 1048.8 389.2C1038.09 389.2 1029.4 397.886 1029.4 408.6C1029.4 419.314 1038.09 428 1048.8 428Z" stroke="black" stroke-width="3" stroke-miterlimit="10"/>
<path d="M1108.5 374.6C1118.61 374.6 1126.8 366.407 1126.8 356.3C1126.8 346.193 1118.61 338 1108.5 338C1098.39 338 1090.2 346.193 1090.2 356.3C1090.2 366.407 1098.39 374.6 1108.5 374.6Z" fill="#EC5E80"/>
<path d="M1106.2 380.4C1116.91 380.4 1125.6 371.714 1125.6 361C1125.6 350.286 1116.91 341.6 1106.2 341.6C1095.49 341.6 1086.8 350.286 1086.8 361C1086.8 371.714 1095.49 380.4 1106.2 380.4Z" stroke="black" stroke-width="3" stroke-miterlimit="10"/>
<path d="M1046 389.4L1109 380.3" stroke="black" stroke-width="3" stroke-miterlimit="10"/>
<path d="M1195.8 144.4C1205.91 144.4 1214.1 136.207 1214.1 126.1C1214.1 115.993 1205.91 107.8 1195.8 107.8C1185.69 107.8 1177.5 115.993 1177.5 126.1C1177.5 136.207 1185.69 144.4 1195.8 144.4Z" fill="#EC5E80"/>
<path d="M1199.3 149.5C1210.01 149.5 1218.7 140.814 1218.7 130.1C1218.7 119.386 1210.01 110.7 1199.3 110.7C1188.59 110.7 1179.9 119.386 1179.9 130.1C1179.9 140.814 1188.59 149.5 1199.3 149.5Z" stroke="black" stroke-width="3" stroke-miterlimit="10"/>
<path d="M1155.1 259.1C1165.21 259.1 1173.4 250.907 1173.4 240.8C1173.4 230.693 1165.21 222.5 1155.1 222.5C1144.99 222.5 1136.8 230.693 1136.8 240.8C1136.8 250.907 1144.99 259.1 1155.1 259.1Z" fill="#EC5E80"/>
<path d="M1152.8 265C1163.51 265 1172.2 256.314 1172.2 245.6C1172.2 234.886 1163.51 226.2 1152.8 226.2C1142.09 226.2 1133.4 234.886 1133.4 245.6C1133.4 256.314 1142.09 265 1152.8 265Z" stroke="black" stroke-width="3" stroke-miterlimit="10"/>
<path d="M1212.5 211.5C1222.61 211.5 1230.8 203.307 1230.8 193.2C1230.8 183.093 1222.61 174.9 1212.5 174.9C1202.39 174.9 1194.2 183.093 1194.2 193.2C1194.2 203.307 1202.39 211.5 1212.5 211.5Z" fill="#EC5E80"/>
<path d="M1210.2 217.4C1220.91 217.4 1229.6 208.714 1229.6 198C1229.6 187.286 1220.91 178.6 1210.2 178.6C1199.49 178.6 1190.8 187.286 1190.8 198C1190.8 208.714 1199.49 217.4 1210.2 217.4Z" stroke="black" stroke-width="3" stroke-miterlimit="10"/>
<path d="M1150 226.3L1213 217.2" stroke="black" stroke-width="3" stroke-miterlimit="10"/>
<path d="M1216.5 287.9C1226.61 287.9 1234.8 279.707 1234.8 269.6C1234.8 259.493 1226.61 251.3 1216.5 251.3C1206.39 251.3 1198.2 259.493 1198.2 269.6C1198.2 279.707 1206.39 287.9 1216.5 287.9Z" fill="#EC5E80"/>
<path d="M1220 292.9C1230.71 292.9 1239.4 284.214 1239.4 273.5C1239.4 262.786 1230.71 254.1 1220 254.1C1209.29 254.1 1200.6 262.786 1200.6 273.5C1200.6 284.214 1209.29 292.9 1220 292.9Z" stroke="black" stroke-width="3" stroke-miterlimit="10"/>
<path d="M1175.8 402.5C1185.91 402.5 1194.1 394.307 1194.1 384.2C1194.1 374.093 1185.91 365.9 1175.8 365.9C1165.69 365.9 1157.5 374.093 1157.5 384.2C1157.5 394.307 1165.69 402.5 1175.8 402.5Z" fill="#EC5E80"/>
<path d="M1173.5 408.4C1184.21 408.4 1192.9 399.714 1192.9 389C1192.9 378.286 1184.21 369.6 1173.5 369.6C1162.79 369.6 1154.1 378.286 1154.1 389C1154.1 399.714 1162.79 408.4 1173.5 408.4Z" stroke="black" stroke-width="3" stroke-miterlimit="10"/>
<path d="M1170.7 369.8L1233.7 360.7" stroke="black" stroke-width="3" stroke-miterlimit="10"/>
<path d="M493.2 676.5L-0.300049 675L-1.80005 345.3L476.2 283.2L771.9 641.5L493.2 676.5Z" fill="#EC5E80"/>
</g>
<defs>
<clipPath id="clip0_1_2">
<rect width="1200" height="675" fill="white"/>
</clipPath>
</defs>
</svg>
