<?xml version="1.0" encoding="UTF-8"?><svg id="Ebene_1" xmlns="http://www.w3.org/2000/svg" viewBox="0 0 1175.87 383.44"><polygon points="455.28 115.12 441.73 115.12 418.3 142.39 418.3 115.12 406.33 115.12 406.33 169.75 418.3 169.75 418.3 157.08 428.53 145.36 443.39 169.75 457.46 169.75 437.27 136.71 455.28 115.12"/><polygon points="499.43 159.61 487.9 159.61 487.9 125.26 499.43 125.26 499.43 115.12 464.38 115.12 464.38 125.26 475.92 125.26 475.92 159.61 464.38 159.61 464.38 169.75 499.43 169.75 499.43 159.61"/><path d="M406.33,191.13v43.62c8.13,4.81,16.52,6.82,24.91,6.82s16.69-2.01,24.82-6.82v-43.62c-8.13-4.81-16.52-6.82-24.82-6.82s-16.78,2.01-24.91,6.82Zm37.76,36.54c-4.02,2.18-8.3,3.06-12.85,3.06s-8.92-.87-12.94-3.06v-29.46c4.02-2.18,8.3-3.06,12.94-3.06s8.83,.87,12.85,3.06v29.46Z"/><path d="M465.13,185.62v54.63h11.98v-14.07c2.36,.35,4.89,.44,7.78,.44,10.49,0,20.37-2.19,27.97-6.82v-28.67c-7.6-4.55-17.48-6.82-27.97-6.82-7.6,0-13.72,.61-19.75,1.31Zm36.1,12.76v14.16c-3.93,2.27-8.13,3.23-13.46,3.23-3.41,0-8.3-.09-10.66-.35v-19.93c2.18-.17,7.25-.35,10.66-.35,5.33,0,9.53,.96,13.46,3.23Z"/><polygon points="519.6 195.85 537.43 195.85 537.43 240.25 549.32 240.25 549.32 195.85 567.15 195.85 567.15 185.62 519.6 185.62 519.6 195.85"/><polygon points="573.36 195.76 584.9 195.76 584.9 230.11 573.36 230.11 573.36 240.25 608.41 240.25 608.41 230.11 596.87 230.11 596.87 195.76 608.41 195.76 608.41 185.62 573.36 185.62 573.36 195.76"/><path d="M616.53,185.62v54.63h11.98v-14.07c2.36,.35,4.89,.44,7.78,.44,10.49,0,20.37-2.19,27.97-6.82v-28.67c-7.6-4.55-17.48-6.82-27.97-6.82-7.6,0-13.72,.61-19.75,1.31Zm36.1,12.76v14.16c-3.93,2.27-8.13,3.23-13.46,3.23-3.41,0-8.3-.09-10.66-.35v-19.93c2.18-.17,7.25-.35,10.66-.35,5.33,0,9.53,.96,13.46,3.23Z"/><path d="M672.78,191.13v49.12h11.89v-17.13h24.65v17.13h11.8v-49.12c-8.04-4.81-15.91-6.82-24.12-6.82s-16.17,2.01-24.21,6.82Zm36.54,21.59h-24.65v-14.51c3.93-2.1,7.87-3.06,12.32-3.06s8.3,.96,12.32,3.06v14.51Z"/><path d="M730.03,191.13v43.62c8.39,4.81,16.52,6.82,24.65,6.82,7.34,0,13.64-1.14,19.14-3.23v-10.93c-5.42,2.1-11.97,3.32-17.66,3.32-5.07,0-9.26-.87-13.9-3.06v-29.46c4.63-2.18,8.83-3.06,13.9-3.06,5.68,0,12.24,1.31,17.66,3.41v-10.93c-5.51-2.1-11.8-3.32-19.14-3.32-8.13,0-16.26,2.01-24.65,6.82Z"/><polygon points="812.76 207.21 830.76 185.62 817.22 185.62 793.79 212.89 793.79 185.62 781.82 185.62 781.82 240.25 793.79 240.25 793.79 227.58 804.02 215.87 818.88 240.25 832.95 240.25 812.76 207.21"/><path d="M297.86,185.3v-.02h-56.84c.86-.75,1.7-1.52,2.52-2.34,20.27-20.27,20.27-53.24,0-73.51-20.27-20.27-53.24-20.27-73.51,0-20.27,20.27-20.27,53.24,0,73.51,10.13,10.13,23.44,15.2,36.75,15.2v.02h56.83c-.86,.75-1.7,1.52-2.52,2.34-20.27,20.27-20.27,53.24,0,73.51,10.13,10.13,23.44,15.2,36.75,15.2s26.62-5.07,36.75-15.2c20.27-20.27,20.27-53.24,0-73.51-10.13-10.13-23.44-15.2-36.75-15.2Zm-118.71-11.48c-15.24-15.24-15.24-40.04,0-55.29,7.62-7.62,17.63-11.43,27.64-11.43s20.02,3.81,27.64,11.43c15.24,15.24,15.24,40.04,0,55.29-15.24,15.24-40.04,15.24-55.29,0Zm146.36,91.07c-15.24,15.24-40.04,15.24-55.29,0-15.24-15.24-15.24-40.04,0-55.29,7.62-7.62,17.63-11.43,27.64-11.43s20.02,3.81,27.64,11.43c15.24,15.24,15.24,40.04,0,55.29Z"/></svg>