<svg width="35" height="35" xmlns="http://www.w3.org/2000/svg" xmlns:xlink="http://www.w3.org/1999/xlink" xml:space="preserve" overflow="hidden"><g transform="translate(-162 -553)"><g><g><g><g><path d="M168.312 563.899C169.016 563.898 169.652 563.481 169.933 562.836L171.5 562.836C171.891 562.836 172.208 563.154 172.208 563.545L172.208 568.197C172.57 568.064 172.946 567.978 173.33 567.94 173.398 567.625 173.497 567.316 173.625 567.02L173.625 563.545C173.624 562.372 172.673 561.421 171.5 561.42L169.933 561.42C169.542 560.523 168.498 560.114 167.602 560.505 166.705 560.896 166.296 561.94 166.687 562.836 166.969 563.483 167.608 563.9 168.312 563.899Z" stroke="#7F7F7F" stroke-width="0.354167" stroke-linecap="butt" stroke-linejoin="miter" stroke-miterlimit="4" stroke-opacity="1" fill="#FFFFFF" fill-rule="nonzero" fill-opacity="1"/><path d="M169.69 574.269C169.674 574.236 169.662 574.202 169.647 574.17L166.896 574.17C166.505 574.17 166.188 573.853 166.188 573.461L166.188 571.54C167.084 571.149 167.493 570.105 167.102 569.209 166.711 568.313 165.667 567.903 164.771 568.294 163.874 568.686 163.465 569.729 163.856 570.626 164.035 571.035 164.362 571.362 164.771 571.54L164.771 573.461C164.772 574.635 165.723 575.585 166.896 575.586L170.659 575.586C170.257 575.211 169.928 574.764 169.69 574.269Z" stroke="#7F7F7F" stroke-width="0.354167" stroke-linecap="butt" stroke-linejoin="miter" stroke-miterlimit="4" stroke-opacity="1" fill="#FFFFFF" fill-rule="nonzero" fill-opacity="1"/><path d="M178.583 559.499 178.583 563.91C179.065 563.928 179.542 564.012 180 564.16L180 559.499C180.896 559.108 181.306 558.064 180.915 557.167 180.523 556.271 179.48 555.862 178.583 556.253 177.687 556.644 177.277 557.688 177.669 558.584 177.847 558.993 178.174 559.32 178.583 559.499Z" stroke="#7F7F7F" stroke-width="0.354167" stroke-linecap="butt" stroke-linejoin="miter" stroke-miterlimit="4" stroke-opacity="1" fill="#FFFFFF" fill-rule="nonzero" fill-opacity="1"/><path d="M185.759 566.715C185.849 566.778 185.936 566.847 186.021 566.916L186.021 565.67C186.021 565.279 186.338 564.961 186.729 564.961L188.854 564.961C190.027 564.96 190.978 564.01 190.979 562.836L190.979 562.332C191.876 561.941 192.285 560.897 191.894 560.001 191.503 559.104 190.459 558.695 189.562 559.086 188.666 559.477 188.257 560.521 188.648 561.417 188.826 561.827 189.153 562.154 189.562 562.332L189.562 562.836C189.562 563.228 189.245 563.545 188.854 563.545L186.729 563.545C185.556 563.546 184.605 564.497 184.604 565.67L184.604 566.136C185.015 566.272 185.404 566.467 185.759 566.715Z" stroke="#7F7F7F" stroke-width="0.354167" stroke-linecap="butt" stroke-linejoin="miter" stroke-miterlimit="4" stroke-opacity="1" fill="#FFFFFF" fill-rule="nonzero" fill-opacity="1"/><path d="M175.042 576.811 175.042 577.711C175.042 578.103 174.725 578.42 174.333 578.42L172.208 578.42C171.035 578.421 170.085 579.372 170.083 580.545L170.083 581.049C169.187 581.44 168.777 582.484 169.169 583.38 169.56 584.277 170.604 584.686 171.5 584.295 172.396 583.904 172.806 582.86 172.415 581.964 172.236 581.554 171.909 581.228 171.5 581.049L171.5 580.545C171.5 580.154 171.817 579.836 172.208 579.836L174.333 579.836C175.506 579.835 176.457 578.885 176.458 577.711L176.458 576.811Z" stroke="#7F7F7F" stroke-width="0.354167" stroke-linecap="butt" stroke-linejoin="miter" stroke-miterlimit="4" stroke-opacity="1" fill="#FFFFFF" fill-rule="nonzero" fill-opacity="1"/><path d="M194.521 569.211C193.818 569.212 193.181 569.629 192.9 570.274L189.389 570.274C189.82 570.664 190.156 571.149 190.369 571.691L192.9 571.691C193.291 572.587 194.335 572.996 195.232 572.605 196.128 572.214 196.537 571.17 196.146 570.274 195.864 569.628 195.226 569.211 194.521 569.211Z" stroke="#7F7F7F" stroke-width="0.354167" stroke-linecap="butt" stroke-linejoin="miter" stroke-miterlimit="4" stroke-opacity="1" fill="#FFFFFF" fill-rule="nonzero" fill-opacity="1"/><path d="M191.333 578.774C190.63 578.775 189.994 579.192 189.713 579.836L188.146 579.836C187.755 579.836 187.438 579.519 187.438 579.128L187.438 576.758C187.235 576.792 187.03 576.81 186.825 576.811L186.021 576.811 186.021 579.128C186.022 580.301 186.973 581.252 188.146 581.253L189.713 581.253C190.104 582.149 191.148 582.559 192.044 582.168 192.94 581.777 193.35 580.733 192.959 579.836 192.677 579.19 192.038 578.773 191.333 578.774Z" stroke="#7F7F7F" stroke-width="0.354167" stroke-linecap="butt" stroke-linejoin="miter" stroke-miterlimit="4" stroke-opacity="1" fill="#FFFFFF" fill-rule="nonzero" fill-opacity="1"/><path d="M181.771 582.112 181.771 576.811 180.354 576.811 180.354 582.112C179.458 582.503 179.048 583.547 179.439 584.443 179.831 585.339 180.874 585.749 181.771 585.358 182.667 584.966 183.077 583.923 182.686 583.026 182.507 582.617 182.18 582.29 181.771 582.112Z" stroke="#7F7F7F" stroke-width="0.354167" stroke-linecap="butt" stroke-linejoin="miter" stroke-miterlimit="4" stroke-opacity="1" fill="#FFFFFF" fill-rule="nonzero" fill-opacity="1"/><path d="M186.825 570.343C186.749 570.341 186.673 570.345 186.597 570.355L186.597 570.343C186.595 569.243 186.055 568.213 185.151 567.585 184.24 566.952 183.081 566.794 182.034 567.16 181.155 565.495 179.259 564.637 177.428 565.074 175.6 565.497 174.298 567.116 174.278 568.992L174.278 569.027C173.028 568.829 171.77 569.332 171.002 570.338 170.242 571.336 170.105 572.677 170.648 573.809 171.199 574.946 172.331 575.687 173.593 575.738L174.688 575.749 186.825 575.749C188.318 575.766 189.542 574.57 189.559 573.077 189.576 571.584 188.38 570.36 186.887 570.343 186.866 570.343 186.846 570.343 186.825 570.343Z" stroke="#7F7F7F" stroke-width="0.354167" stroke-linecap="butt" stroke-linejoin="miter" stroke-miterlimit="4" stroke-opacity="1" fill="#FFFFFF" fill-rule="nonzero" fill-opacity="1"/></g></g></g></g></g></svg>